<?xml version="1.0" standalone="no"?>
<!DOCTYPE svg PUBLIC "-//W3C//DTD SVG 20010904//EN"
 "http://www.w3.org/TR/2001/REC-SVG-20010904/DTD/svg10.dtd">
<svg version="1.0" xmlns="http://www.w3.org/2000/svg"
 width="286.000000pt" height="176.000000pt" viewBox="0 0 286.000000 176.000000"
 preserveAspectRatio="xMidYMid meet">

<g transform="translate(0.000000,176.000000) scale(0.100000,-0.100000)"
fill="#000000" stroke="none">
<path d="M608 1463 c6 -2 18 -2 25 0 6 3 1 5 -13 5 -14 0 -19 -2 -12 -5z"/>
<path d="M568 1453 c7 -3 16 -2 19 1 4 3 -2 6 -13 5 -11 0 -14 -3 -6 -6z"/>
<path d="M520 1440 c-8 -5 -10 -10 -5 -10 6 0 17 5 25 10 8 5 11 10 5 10 -5 0
-17 -5 -25 -10z"/>
<path d="M469 1409 l-24 -20 28 17 c15 9 27 18 27 20 0 8 -8 4 -31 -17z"/>
<path d="M404 1358 l-29 -33 33 29 c30 28 37 36 29 36 -2 0 -16 -15 -33 -32z"/>
<path d="M628 1315 c-2 -25 0 -45 4 -45 5 0 8 20 8 45 0 25 -2 45 -4 45 -2 0
-6 -20 -8 -45z"/>
<path d="M361 1307 c-8 -11 -5 -17 15 -26 15 -6 29 -10 31 -7 2 2 -5 7 -17 11
-13 4 -19 12 -16 21 7 18 2 18 -13 1z"/>
<path d="M1150 1080 c0 -159 3 -208 15 -238 33 -78 104 -124 194 -125 79 0
123 17 169 67 53 57 62 105 62 321 l0 175 -55 0 -55 0 0 -177 c0 -200 -8 -232
-68 -267 -29 -16 -39 -17 -73 -7 -72 22 -79 46 -79 264 l0 187 -55 0 -55 0 0
-200z"/>
<path d="M1660 995 l0 -285 55 0 55 0 0 115 0 115 95 0 95 0 0 55 0 55 -95 0
-95 0 0 60 0 60 125 0 125 0 0 55 0 55 -180 0 -180 0 0 -285z"/>
<path d="M2100 995 l0 -285 55 0 55 0 2 166 3 166 153 -166 c97 -105 160 -166
173 -166 18 0 19 9 19 285 l0 285 -50 0 -50 0 0 -165 c0 -91 -3 -165 -7 -164
-5 0 -75 74 -157 165 -112 123 -155 164 -173 164 l-23 0 0 -285z"/>
<path d="M326 1245 c-9 -26 -7 -32 5 -12 6 10 9 21 6 23 -2 3 -7 -2 -11 -11z"/>
<path d="M480 1238 c13 -14 49 -27 54 -20 3 5 0 9 -7 9 -7 0 -21 4 -32 8 -11
5 -18 6 -15 3z"/>
<path d="M380 1226 c0 -3 9 -10 20 -16 11 -6 20 -8 20 -6 0 3 -9 10 -20 16
-11 6 -20 8 -20 6z"/>
<path d="M311 1194 c0 -11 3 -14 6 -6 3 7 2 16 -1 19 -3 4 -6 -2 -5 -13z"/>
<path d="M430 1196 c0 -3 9 -10 20 -16 11 -6 20 -8 20 -6 0 3 -9 10 -20 16
-11 6 -20 8 -20 6z"/>
<path d="M303 1135 c0 -22 2 -30 4 -17 2 12 2 30 0 40 -3 9 -5 -1 -4 -23z"/>
<path d="M486 1157 c3 -10 9 -15 12 -12 3 3 0 11 -7 18 -10 9 -11 8 -5 -6z"/>
<path d="M303 1055 c0 -22 2 -30 4 -17 2 12 2 30 0 40 -3 9 -5 -1 -4 -23z"/>
<path d="M474 1018 l-19 -23 23 19 c21 18 27 26 19 26 -2 0 -12 -10 -23 -22z"/>
<path d="M311 994 c0 -11 3 -14 6 -6 3 7 2 16 -1 19 -3 4 -6 -2 -5 -13z"/>
<path d="M399 963 c-13 -16 -12 -17 4 -4 9 7 17 15 17 17 0 8 -8 3 -21 -13z"/>
<path d="M441 930 l-84 -48 43 -46 c49 -53 143 -103 213 -112 l47 -7 0 34 c0
19 -3 65 -7 102 l-6 68 -54 -7 -55 -7 4 33 c1 19 -1 34 -7 36 -5 1 -48 -20
-94 -46z"/>
<path d="M790 936 c-21 -50 -27 -53 -56 -31 -10 8 -22 15 -26 15 -5 0 -8 -46
-8 -101 l0 -102 42 7 c85 14 172 66 228 136 l30 38 -74 35 c-117 55 -113 55
-136 3z"/>
<path d="M320 964 c0 -6 7 -19 16 -30 14 -18 14 -18 3 6 -14 31 -19 36 -19 24z"/>
<path d="M2015 661 c-3 -5 -1 -12 5 -16 5 -3 10 1 10 9 0 18 -6 21 -15 7z"/>
<path d="M1490 595 c0 -37 4 -65 10 -65 6 0 10 11 10 25 0 20 5 25 24 25 14 0
28 5 31 10 4 6 -7 10 -24 10 -24 0 -31 4 -31 20 0 15 7 20 29 20 17 0 33 5 36
10 4 6 -12 10 -39 10 l-46 0 0 -65z"/>
<path d="M314 601 c1 -61 21 -85 54 -65 12 8 17 25 18 65 l1 54 -6 -55 c-5
-50 -8 -55 -31 -55 -23 0 -26 5 -31 55 l-6 55 1 -54z"/>
<path d="M1071 634 c0 -11 3 -14 6 -6 3 7 2 16 -1 19 -3 4 -6 -2 -5 -13z"/>
<path d="M1279 628 c-3 -80 -4 -83 -24 -83 -24 0 -34 43 -13 57 10 8 10 9 -2
5 -19 -5 -25 -44 -10 -62 7 -8 23 -14 36 -13 22 2 24 6 24 60 0 32 -2 58 -5
58 -3 0 -5 -10 -6 -22z"/>
<path d="M1610 573 c0 -24 5 -43 10 -43 6 0 10 12 10 27 0 14 7 34 16 44 14
16 13 17 -10 15 -24 -1 -26 -5 -26 -43z"/>
<path d="M1690 611 c0 -6 10 -10 21 -8 12 1 24 -4 26 -10 3 -8 -5 -13 -20 -13
-26 0 -40 -19 -28 -39 4 -6 22 -10 40 -9 31 2 32 4 29 43 -3 37 -5 40 -35 43
-19 2 -33 -1 -33 -7z m48 -53 c-3 -7 -11 -13 -18 -13 -7 0 -15 6 -17 13 -3 7
4 12 17 12 13 0 20 -5 18 -12z"/>
<path d="M1802 571 c1 -35 2 -39 5 -14 8 64 46 62 56 -2 3 -19 4 -13 3 15 -1
44 -2 45 -33 46 -33 1 -33 1 -31 -45z"/>
<path d="M1922 611 c-8 -5 -12 -22 -10 -42 3 -30 6 -34 37 -37 21 -2 31 0 27
7 -4 6 -13 8 -21 5 -21 -8 -37 29 -21 51 7 10 18 15 24 11 7 -4 12 -2 12 3 0
13 -30 14 -48 2z"/>
<path d="M2014 604 c3 -9 6 -29 6 -45 0 -16 3 -29 8 -29 4 0 7 20 7 45 0 31
-4 45 -14 45 -8 0 -11 -6 -7 -16z"/>
<path d="M2074 605 c-8 -20 4 -35 27 -35 12 0 19 -5 16 -12 -2 -7 -14 -12 -26
-11 -11 2 -21 -2 -21 -8 0 -6 14 -9 32 -7 43 4 50 34 13 48 -15 6 -23 15 -20
21 4 6 13 8 21 5 7 -3 16 -1 19 4 4 6 -8 10 -25 10 -18 0 -33 -6 -36 -15z"/>
<path d="M2182 608 c-7 -7 -12 -21 -12 -33 0 -28 18 -45 49 -45 22 0 22 13 0
16 -5 1 -13 2 -19 3 -5 0 -10 12 -10 26 0 14 5 26 10 26 6 1 14 2 19 3 22 3
22 16 0 16 -14 0 -30 -5 -37 -12z"/>
<path d="M2280 612 c0 -5 7 -9 16 -8 9 0 19 -5 21 -11 3 -8 -5 -13 -21 -13
-21 0 -26 -5 -26 -25 0 -23 4 -25 35 -23 35 2 36 3 33 43 -3 35 -6 40 -30 43
-16 2 -28 -1 -28 -6z m40 -51 c0 -14 -18 -23 -30 -16 -6 4 -8 11 -5 16 8 12
35 12 35 0z"/>
<path d="M2380 573 c0 -53 18 -57 22 -5 2 25 8 37 18 37 10 0 16 -12 18 -37 4
-47 22 -50 22 -4 0 40 -17 57 -54 54 -24 -2 -26 -6 -26 -45z"/>
<path d="M2500 610 c0 -6 4 -9 9 -6 11 7 41 -3 41 -14 0 -5 -12 -10 -27 -12
-20 -2 -28 -9 -28 -23 0 -16 7 -20 33 -21 33 -1 33 0 30 40 -3 36 -6 41 -30
44 -16 2 -28 -2 -28 -8z m40 -55 c-12 -15 -30 -12 -30 6 0 5 10 9 21 9 18 0
19 -2 9 -15z"/>
<path d="M431 566 c2 -34 3 -36 6 -11 3 17 9 35 14 41 5 7 3 11 -6 11 -11 0
-15 -11 -14 -41z"/>
<path d="M490 567 c4 -41 5 -41 8 -8 2 18 0 37 -5 42 -5 5 -6 -11 -3 -34z"/>
<path d="M596 597 c3 -10 9 -15 12 -12 3 3 0 11 -7 18 -10 9 -11 8 -5 -6z"/>
<path d="M646 595 c-9 -26 -7 -32 5 -12 6 10 9 21 6 23 -2 3 -7 -2 -11 -11z"/>
<path d="M696 594 c-9 -23 -7 -34 5 -34 5 0 7 5 4 10 -4 6 -1 17 5 25 7 9 8
15 2 15 -5 0 -13 -7 -16 -16z"/>
<path d="M746 599 c3 -6 0 -16 -7 -21 -12 -8 -11 -9 1 -5 18 4 27 37 10 37 -6
0 -8 -5 -4 -11z"/>
<path d="M803 595 c-3 -9 -3 -19 1 -22 3 -4 6 1 6 10 0 8 6 18 13 20 9 4 9 6
-1 6 -7 1 -15 -6 -19 -14z"/>
<path d="M870 595 c0 -9 11 -20 25 -25 32 -12 32 -27 0 -33 -23 -4 -23 -4 2
-3 34 1 37 27 5 41 -12 5 -20 16 -17 22 2 7 0 13 -5 13 -6 0 -10 -7 -10 -15z"/>
<path d="M968 570 c2 -22 6 -40 8 -40 2 0 4 18 4 40 0 22 -3 40 -8 40 -4 0 -6
-18 -4 -40z"/>
<path d="M1014 584 c-8 -33 15 -59 45 -49 11 3 21 14 21 23 0 13 -2 13 -14 -3
-8 -11 -19 -16 -30 -12 -19 7 -21 38 -4 55 9 9 9 12 0 12 -6 0 -15 -12 -18
-26z"/>
<path d="M1065 600 c3 -5 8 -10 11 -10 2 0 4 5 4 10 0 6 -5 10 -11 10 -5 0 -7
-4 -4 -10z"/>
<path d="M1165 600 c3 -5 8 -10 11 -10 2 0 4 5 4 10 0 6 -5 10 -11 10 -5 0 -7
-4 -4 -10z"/>
<path d="M1334 596 c-3 -8 -4 -25 -2 -38 2 -18 10 -23 33 -25 28 -2 28 -1 5 6
-20 6 -25 14 -25 39 0 35 -3 40 -11 18z"/>
<path d="M1376 599 c3 -6 0 -15 -7 -20 -11 -7 -10 -9 4 -9 10 0 17 8 17 20 0
11 -5 20 -11 20 -5 0 -7 -5 -3 -11z"/>
<path d="M1124 565 c-8 -19 4 -35 24 -34 15 1 15 2 0 6 -28 7 -21 31 10 36
l27 4 -28 2 c-16 0 -30 -5 -33 -14z"/>
<path d="M617 552 c1 -8 3 -16 3 -18 0 -3 5 -2 10 1 6 3 10 11 10 16 0 6 -4 8
-9 5 -5 -4 -11 -3 -14 1 -2 5 -2 2 0 -5z"/>
<path d="M708 538 c6 -6 18 -8 28 -6 14 3 12 5 -9 10 -19 3 -25 2 -19 -4z"/>
<path d="M1926 313 c-6 -14 -5 -15 5 -6 7 7 10 15 7 18 -3 3 -9 -2 -12 -12z"/>
</g>
</svg>
