<?xml version="1.0" standalone="no"?>
<!DOCTYPE svg PUBLIC "-//W3C//DTD SVG 20010904//EN"
 "http://www.w3.org/TR/2001/REC-SVG-20010904/DTD/svg10.dtd">
<svg version="1.0" xmlns="http://www.w3.org/2000/svg"
 width="259.000000pt" height="195.000000pt" viewBox="0 0 259.000000 195.000000"
 preserveAspectRatio="xMidYMid meet">

<g transform="translate(0.000000,195.000000) scale(0.100000,-0.100000)"
fill="#000000" stroke="none">
<path d="M1167 1788 c4 -24 8 -59 8 -79 0 -22 5 -36 13 -36 15 0 15 0 0 87 -7
38 -16 70 -20 70 -5 0 -5 -19 -1 -42z"/>
<path d="M1252 1768 c-24 -24 -9 -88 21 -88 5 0 1 7 -7 16 -18 18 -14 63 6 76
7 4 8 8 3 8 -6 0 -16 -5 -23 -12z"/>
<path d="M1299 1771 c8 -5 11 -16 8 -25 -4 -10 -1 -16 8 -16 8 0 15 6 15 13 0
16 -20 37 -34 37 -6 0 -5 -4 3 -9z"/>
<path d="M1578 1708 c-15 -40 -25 -74 -23 -76 2 -3 9 6 14 19 5 13 18 48 30
77 11 28 17 52 13 52 -4 0 -19 -32 -34 -72z"/>
<path d="M1376 1749 c-11 -54 -13 -79 -6 -79 9 0 24 89 16 97 -3 3 -7 -5 -10
-18z"/>
<path d="M1405 1760 c-3 -5 -1 -10 4 -10 6 0 11 5 11 10 0 6 -2 10 -4 10 -3 0
-8 -4 -11 -10z"/>
<path d="M1112 1748 c-28 -28 -2 -89 36 -87 13 0 12 2 -4 9 -24 9 -36 50 -22
74 11 19 7 21 -10 4z"/>
<path d="M1507 1732 c4 -17 0 -21 -28 -24 -36 -3 -53 -33 -27 -49 22 -14 33
-10 13 4 -21 16 -12 37 17 37 17 0 19 -4 14 -25 -4 -14 -2 -25 3 -25 14 0 25
80 13 92 -8 8 -9 5 -5 -10z"/>
<path d="M883 1723 l-32 -16 31 -61 c35 -70 36 -71 44 -64 3 4 -1 20 -10 36
-15 28 -14 31 7 46 l22 17 -24 -12 c-20 -10 -27 -9 -38 7 -15 20 -17 34 -5 34
5 0 17 7 28 15 24 18 17 18 -23 -2z"/>
<path d="M992 1718 c-29 -29 1 -89 44 -87 17 0 16 1 -4 9 -31 13 -49 54 -32
75 15 18 9 20 -8 3z"/>
<path d="M1044 1711 c0 -11 5 -17 13 -14 10 4 11 9 2 19 -15 18 -15 18 -15 -5z"/>
<path d="M1761 1625 c-18 -30 -37 -55 -41 -55 -3 0 -7 -7 -7 -15 0 -8 3 -15 7
-15 10 0 81 122 78 132 -2 5 -18 -16 -37 -47z"/>
<path d="M1690 1647 c-19 -10 -25 -20 -25 -46 0 -22 6 -36 15 -39 12 -4 13 -2
3 9 -19 20 -16 37 13 64 30 28 29 30 -6 12z"/>
<path d="M732 1568 c-29 -29 1 -89 44 -87 17 0 17 2 -3 11 -29 14 -29 19 2 48
13 12 22 27 19 31 -8 13 -48 11 -62 -3z m48 -6 c0 -5 -9 -17 -19 -26 -21 -19
-37 -7 -27 19 6 16 46 21 46 7z"/>
<path d="M1787 1552 c-19 -21 -22 -48 -7 -57 5 -3 8 0 5 7 -3 7 -1 20 5 28 7
12 13 11 34 -9 27 -26 46 -21 45 12 0 21 -1 21 -10 -2 l-10 -25 -22 22 c-19
19 -20 24 -7 32 13 8 13 10 -1 10 -9 0 -23 -8 -32 -18z"/>
<path d="M620 1534 c0 -9 104 -104 113 -104 16 0 2 16 -51 63 -52 46 -62 53
-62 41z"/>
<path d="M1085 1475 c-14 -13 -25 -28 -25 -33 0 -5 -14 -15 -30 -22 -29 -12
-57 -46 -47 -57 3 -2 8 4 11 15 4 11 20 25 37 32 16 7 36 25 44 40 18 35 64
57 51 25 -8 -22 1 -18 14 5 9 17 8 20 -10 20 -12 0 -32 -11 -45 -25z"/>
<path d="M1319 1493 c-9 -2 -22 -16 -30 -30 -8 -14 -31 -37 -51 -50 -41 -25
-47 -47 -23 -79 13 -17 13 -16 2 15 -11 30 -10 35 8 45 10 6 38 30 62 54 42
42 70 55 59 27 -8 -22 1 -18 14 5 9 17 8 20 -7 19 -10 -1 -25 -3 -34 -6z"/>
<path d="M1525 1475 c-14 -13 -25 -28 -25 -32 0 -5 -16 -17 -35 -27 -19 -11
-35 -23 -35 -27 0 -4 18 4 40 18 22 15 40 30 40 35 0 15 40 48 57 48 13 0 14
-3 5 -12 -7 -7 -12 -16 -12 -22 0 -11 29 25 30 37 0 17 -43 5 -65 -18z"/>
<path d="M634 1440 c1 -26 7 -38 28 -50 25 -14 29 -13 45 5 17 17 17 18 1 6
-24 -18 -65 8 -71 46 -4 22 -4 20 -3 -7z"/>
<path d="M1957 1453 c-4 -3 -7 -24 -7 -46 0 -26 -6 -45 -17 -53 -16 -13 -15
-13 7 -5 19 6 25 16 27 42 1 19 2 40 2 48 1 9 9 12 26 9 13 -3 22 -1 19 3 -6
11 -48 12 -57 2z"/>
<path d="M1103 1425 c-11 -24 -10 -25 16 -23 21 2 27 7 28 27 2 26 2 26 -9 4
-14 -28 -28 -30 -21 -3 7 28 0 25 -14 -5z"/>
<path d="M1322 1426 c-14 -31 -4 -41 21 -19 20 18 20 17 14 -17 -5 -25 -4 -31
3 -20 5 8 10 30 10 49 l0 33 -21 -23 -20 -24 6 23 c8 29 1 28 -13 -2z"/>
<path d="M1578 1432 c-4 -12 -11 -22 -17 -22 -6 0 -8 8 -5 18 5 15 4 15 -6 -1
-16 -25 -4 -34 22 -18 19 12 20 11 14 -8 -15 -51 -16 -63 -1 -32 11 24 13 42
7 60 -8 25 -9 25 -14 3z"/>
<path d="M1061 1397 c-8 -10 -7 -14 4 -14 8 0 15 6 15 14 0 7 -2 13 -4 13 -2
0 -9 -6 -15 -13z"/>
<path d="M1277 1392 c-24 -27 -21 -36 4 -11 11 11 19 23 16 25 -2 2 -11 -4
-20 -14z"/>
<path d="M1490 1378 c-20 -33 -25 -48 -15 -48 3 0 11 15 19 33 l14 32 1 -32
c1 -18 5 -33 9 -33 4 0 8 18 7 40 0 48 -9 50 -35 8z"/>
<path d="M1881 1394 c0 -12 7 -28 17 -35 15 -12 16 -12 6 1 -7 8 -14 24 -17
35 -4 19 -5 19 -6 -1z"/>
<path d="M1137 1383 c-4 -3 -7 -13 -7 -22 1 -13 3 -13 11 2 11 19 8 33 -4 20z"/>
<path d="M1016 1371 c-4 -7 -5 -15 -2 -18 9 -9 19 4 14 18 -4 11 -6 11 -12 0z"/>
<path d="M1097 1373 c-2 -5 -1 -19 4 -33 4 -15 7 -18 8 -8 1 9 4 23 7 32 6 16
-11 23 -19 9z"/>
<path d="M1235 1371 c-4 -7 -3 -16 2 -20 6 -3 13 -13 16 -21 5 -13 5 -13 6 0
0 8 -4 24 -8 34 -6 15 -10 16 -16 7z"/>
<path d="M1307 1362 c-10 -10 -17 -25 -17 -33 1 -8 7 -3 15 11 l14 25 1 -23
c0 -25 21 -26 28 -1 3 11 1 11 -8 -1 -9 -12 -11 -10 -7 13 5 32 -3 34 -26 9z"/>
<path d="M1455 1359 c-6 -17 -9 -19 -16 -8 -5 8 -9 10 -9 4 0 -14 18 -41 23
-35 7 8 18 60 13 60 -3 0 -8 -10 -11 -21z"/>
<path d="M1542 1368 c-5 -8 -6 -22 -1 -33 5 -14 8 -15 9 -5 1 8 3 23 5 33 4
20 1 21 -13 5z"/>
<path d="M565 1360 c-3 -5 0 -7 9 -4 8 3 28 -2 45 -10 35 -19 51 -20 51 -5 0
5 -4 7 -10 4 -5 -3 -20 1 -32 9 -25 18 -54 21 -63 6z"/>
<path d="M1036 1355 c-9 -26 -7 -32 5 -12 6 10 9 21 6 23 -2 3 -7 -2 -11 -11z"/>
<path d="M1070 1349 c0 -11 4 -18 10 -14 5 3 7 12 3 20 -7 21 -13 19 -13 -6z"/>
<path d="M991 1344 c-1 -6 6 -17 14 -24 12 -10 15 -9 15 4 0 10 -4 15 -9 12
-5 -4 -12 0 -14 6 -4 8 -6 9 -6 2z"/>
<path d="M1947 1313 c-4 -3 -7 -13 -7 -22 0 -11 3 -11 14 4 12 17 16 18 32 5
17 -14 18 -14 5 3 -14 18 -33 22 -44 10z"/>
<path d="M590 1299 c0 -11 25 -22 39 -17 6 1 -1 8 -14 15 -14 6 -25 7 -25 2z"/>
<path d="M2037 1295 c-4 -8 -12 -15 -19 -15 -14 0 -68 -39 -56 -40 32 -1 99
52 84 67 -2 2 -6 -3 -9 -12z"/>
<path d="M998 1281 c-10 -10 -18 -23 -18 -29 0 -14 47 -62 54 -54 3 3 6 -1 7
-9 0 -8 4 -6 9 6 8 20 9 20 9 -1 1 -17 -5 -21 -35 -22 -20 -1 -39 -3 -41 -6
-4 -4 32 -359 42 -424 l6 -32 -57 6 -58 7 23 -38 c12 -21 20 -44 17 -51 -7
-18 -5 -17 44 2 39 16 42 16 55 -2 13 -17 11 -21 -13 -39 -15 -11 -38 -31 -52
-46 -24 -25 -26 -25 -58 -11 -37 18 -41 44 -10 66 12 9 18 16 12 16 -17 0 -44
-35 -44 -56 0 -40 32 -127 55 -150 20 -20 34 -24 80 -24 41 0 55 -4 55 -14 0
-8 5 -18 12 -22 8 -5 9 -2 5 9 -3 9 -2 19 4 22 5 4 13 -4 18 -17 9 -22 16 -11
12 19 -2 14 24 21 84 25 30 2 40 -1 40 -12 0 -8 -5 -14 -11 -13 -9 2 -9 -4 0
-22 12 -27 21 -31 32 -13 4 7 3 8 -4 4 -7 -4 -12 -2 -12 3 0 6 4 11 10 11 5 0
7 7 4 15 -4 9 0 15 10 15 9 0 16 -6 16 -13 0 -8 6 -14 14 -14 11 0 12 4 3 18
-16 26 -7 30 59 21 51 -6 59 -10 60 -28 1 -12 4 -26 8 -33 4 -6 3 -11 -3 -11
-6 0 -8 -7 -4 -16 9 -24 24 5 16 33 -4 17 -1 23 12 23 11 0 15 -5 12 -14 -4
-11 -1 -13 10 -9 12 5 14 3 8 -8 -8 -12 -6 -12 8 0 20 16 22 22 6 18 -6 -1
-14 4 -16 11 -3 9 11 12 52 12 46 0 60 4 80 24 24 24 55 110 55 152 0 21 -34
57 -63 67 -8 3 -5 17 12 47 l24 43 -56 -6 -56 -7 5 32 c5 40 44 407 44 419 0
5 -13 9 -29 9 -16 0 -32 6 -34 13 -4 10 -6 10 -6 0 -1 -21 -51 -16 -51 5 0 14
2 15 10 2 9 -13 10 -13 10 0 0 13 1 13 10 0 6 -10 10 -11 10 -2 0 6 7 12 15
12 8 0 15 -6 16 -12 0 -7 4 -3 9 10 5 12 16 25 25 28 21 8 19 36 -5 57 -24 21
-107 23 -132 3 -24 -18 -23 -48 2 -66 11 -8 20 -22 20 -32 0 -15 -9 -18 -65
-18 -58 0 -65 2 -65 20 0 11 9 25 20 32 46 29 6 78 -65 78 -71 0 -111 -49 -65
-78 11 -7 20 -21 20 -32 0 -18 -7 -20 -65 -20 -74 0 -83 13 -39 57 l25 25 -22
24 c-18 19 -32 24 -73 23 -35 0 -57 -6 -68 -18z m100 2 c-16 -2 -40 -2 -55 0
-16 2 -3 4 27 4 30 0 43 -2 28 -4z m215 0 c-13 -2 -35 -2 -50 0 -16 2 -5 4 22
4 28 0 40 -2 28 -4z m220 0 c-13 -2 -35 -2 -50 0 -16 2 -5 4 22 4 28 0 40 -2
28 -4z m-395 -30 c-3 -15 -15 -18 -73 -18 -58 0 -70 3 -73 18 -3 15 6 17 73
17 67 0 76 -2 73 -17z m222 2 c0 -17 2 -16 -60 -21 -59 -4 -90 3 -90 21 0 12
15 15 75 15 60 0 75 -3 75 -15z m218 -2 c-5 -26 -141 -26 -146 0 -3 15 6 17
73 17 66 0 76 -2 73 -17z m-478 -68 c0 -8 -7 -15 -15 -15 -8 0 -15 7 -15 15 0
8 7 15 15 15 8 0 15 -7 15 -15z m171 6 c7 11 9 10 9 -3 0 -10 -7 -18 -15 -18
-8 0 -15 8 -14 18 0 12 2 13 6 3 5 -11 7 -11 14 0z m41 0 c8 12 9 12 6 0 -6
-22 -28 -25 -27 -4 0 12 2 14 6 4 5 -11 7 -11 15 0z m-159 -105 c-16 -31 -15
-31 4 -13 25 22 33 22 33 -2 0 -36 -11 -53 -26 -40 -11 9 -14 8 -14 -6 0 -15
-2 -16 -16 -4 -15 12 -16 11 -9 -10 6 -20 5 -23 -10 -17 -15 5 -16 4 -5 -9 10
-13 9 -15 -7 -15 -31 0 -63 29 -63 56 0 19 8 29 30 37 17 6 30 15 30 19 0 4
12 18 27 32 34 32 48 16 26 -28z m225 -42 c23 -16 89 -134 74 -134 -4 0 -24 9
-44 19 -30 17 -39 18 -53 7 -23 -16 -13 -78 16 -107 l21 -21 -24 -26 -23 -27
26 23 c29 25 47 18 22 -10 -9 -11 -11 -18 -5 -18 7 0 12 5 12 11 0 7 9 9 24 5
20 -5 26 -1 36 27 l13 32 8 -44 c9 -48 4 -65 -16 -57 -10 4 -10 -1 1 -22 8
-15 14 -35 14 -46 0 -16 -5 -17 -44 -12 -24 4 -47 3 -50 -2 -3 -6 -22 -5 -45
1 -40 11 -46 27 -11 27 20 0 30 17 22 38 -2 6 -11 12 -19 12 -9 0 -13 6 -9 15
3 8 2 14 -2 14 -19 -3 -23 2 -13 15 9 11 9 14 -1 13 -7 -1 -32 5 -56 13 -38
12 -45 12 -59 -3 -16 -15 -16 -19 0 -53 10 -20 16 -38 13 -41 -8 -8 -116 59
-127 79 -18 33 -3 63 40 83 33 15 47 16 82 7 l41 -10 -26 27 c-18 18 -37 28
-54 27 -22 -1 -27 4 -29 27 -2 31 39 69 83 74 23 4 25 1 21 -25 -3 -20 3 -37
22 -61 l27 -32 -4 40 c-5 53 2 81 28 109 25 26 38 27 68 6z m212 -415 c65 -25
80 -36 80 -58 0 -24 -70 -57 -81 -39 -5 7 -9 16 -9 19 0 4 -18 19 -40 34 -38
27 -40 29 -24 46 10 11 18 19 18 19 1 0 26 -9 56 -21z m-472 -74 c-2 -11 -11
-21 -20 -23 -15 -3 -18 4 -18 32 0 34 1 35 20 24 12 -8 19 -21 18 -33z m418
23 c56 -43 57 -58 4 -58 -39 0 -40 1 -42 38 -1 36 -1 36 -5 5 -4 -32 -25 -44
-38 -23 -9 14 22 60 39 60 7 0 26 -10 42 -22z m-466 -23 c0 -34 -1 -35 -40
-35 -47 0 -50 10 -13 45 38 35 53 32 53 -10z m115 1 l30 -13 -42 -4 c-36 -4
-43 -2 -43 13 0 21 14 22 55 4z m255 -4 c0 -15 -7 -17 -41 -14 -42 4 -42 17 1
25 14 2 28 5 33 6 4 0 7 -7 7 -17z m-200 -42 c0 -5 -7 -7 -15 -4 -8 4 -15 2
-15 -4 0 -5 7 -12 15 -16 17 -6 20 -32 4 -42 -6 -3 -16 -1 -22 5 -9 9 -8 11 6
6 22 -9 23 11 0 23 -10 6 -14 16 -10 26 7 17 37 22 37 6z m98 -2 c9 -9 12 -9
12 2 0 9 3 10 9 5 10 -11 3 -75 -9 -75 -4 0 -5 12 -2 26 3 18 1 25 -6 20 -6
-3 -13 2 -15 11 -3 10 -5 3 -6 -14 -1 -25 -5 -33 -20 -33 -11 0 -22 6 -24 13
-4 9 -8 8 -17 -3 -10 -12 -11 -10 -6 10 3 14 6 28 6 33 0 18 20 5 26 -18 9
-35 24 -31 24 5 0 32 9 37 28 18z m-184 -18 c-10 -4 -25 -5 -31 -3 -7 3 -13 0
-13 -6 0 -6 5 -11 10 -11 6 0 10 -5 10 -11 0 -5 -4 -7 -10 -4 -5 3 -10 -1 -10
-10 0 -12 4 -13 18 -7 9 5 24 7 32 5 10 -3 8 1 -4 11 -11 9 -16 19 -13 23 4 4
15 -1 24 -10 21 -21 10 -32 -41 -41 -35 -7 -38 -6 -32 11 6 14 3 13 -14 -4
-29 -32 -37 -29 -42 13 -4 38 13 57 34 36 8 -8 15 -6 26 4 8 8 21 13 28 10 7
-3 16 -1 19 5 4 5 11 6 18 2 7 -4 4 -9 -9 -13z m271 10 c3 -6 -1 -7 -9 -4 -9
3 -16 1 -16 -5 0 -6 6 -11 13 -11 6 0 4 -5 -6 -11 -9 -6 -15 -14 -12 -20 4 -5
1 -9 -5 -9 -6 0 -10 15 -8 35 1 26 7 35 19 35 10 0 21 -4 24 -10z m188 -7 c-7
-3 -13 -9 -13 -14 0 -6 5 -7 11 -3 8 4 9 -1 4 -16 -5 -17 -4 -21 5 -15 9 5 11
4 6 -3 -4 -7 -14 -12 -22 -12 -8 0 -13 4 -9 9 3 5 1 12 -5 16 -5 3 -10 -3 -10
-14 0 -15 -6 -21 -21 -21 -17 0 -20 4 -15 23 3 12 6 30 6 40 0 9 4 17 8 17 4
0 7 -17 6 -37 l-3 -38 11 37 c6 20 18 39 27 41 20 4 31 -4 14 -10z m-598 -16
c7 -7 6 -8 -2 -3 -7 4 -13 2 -13 -3 0 -6 5 -11 10 -11 6 0 10 -5 10 -11 0 -5
-4 -7 -10 -4 -5 3 -10 -1 -10 -10 0 -12 -6 -15 -22 -10 -13 4 -27 12 -33 17
-6 6 -3 7 10 2 19 -7 19 -7 3 13 -28 32 -23 46 15 38 17 -4 37 -12 42 -18z
m455 6 c0 20 54 24 66 5 4 -7 3 -8 -4 -4 -8 5 -12 -4 -12 -28 0 -20 -4 -36 -8
-36 -4 0 -6 15 -4 33 3 26 0 34 -12 34 -11 0 -16 -10 -16 -31 l0 -31 -20 25
c-11 14 -20 32 -19 40 0 11 3 10 14 -4 13 -17 15 -18 15 -3z m-26 -38 c3 -8 1
-15 -4 -15 -6 0 -10 7 -10 15 0 8 2 15 4 15 2 0 6 -7 10 -15z m-414 -25 c0 -5
-5 -10 -11 -10 -5 0 -7 5 -4 10 3 6 8 10 11 10 2 0 4 -4 4 -10z"/>
<path d="M1169 973 l-24 -28 28 24 c15 14 27 26 27 28 0 8 -8 1 -31 -24z"/>
<path d="M1290 876 c0 -2 8 -10 18 -17 15 -13 16 -12 3 4 -13 16 -21 21 -21
13z"/>
<path d="M1280 816 c0 -2 8 -10 18 -17 15 -13 16 -12 3 4 -13 16 -21 21 -21
13z"/>
<path d="M1050 449 c0 -17 4 -28 10 -24 6 3 10 17 10 31 0 13 -4 24 -10 24 -5
0 -10 -14 -10 -31z"/>
<path d="M963 472 c9 -10 17 -25 17 -32 0 -7 3 -11 6 -7 10 10 -6 45 -23 52
-15 5 -15 4 0 -13z"/>
<path d="M466 1282 c15 -14 135 -54 141 -48 6 6 5 6 -81 36 -66 22 -74 24 -60
12z"/>
<path d="M500 1214 c0 -25 15 -40 51 -49 16 -4 30 -1 36 7 9 10 4 13 -25 13
-29 0 -39 5 -49 25 -12 23 -13 24 -13 4z"/>
<path d="M2028 1214 c-54 -16 -65 -29 -17 -19 17 4 39 8 47 9 9 2 18 8 20 14
2 7 2 12 0 11 -1 0 -24 -7 -50 -15z"/>
<path d="M2084 1188 c6 -21 -9 -34 -52 -43 -18 -3 -30 -10 -27 -15 6 -10 64 7
84 25 10 10 11 17 1 31 -9 15 -10 15 -6 2z"/>
<path d="M480 1130 c0 -5 6 -10 14 -10 7 0 29 -2 47 -5 25 -4 29 -3 14 3 -37
17 -75 23 -75 12z"/>
<path d="M2100 1099 c0 -5 -13 -9 -28 -9 -16 0 -37 -6 -48 -14 -16 -13 -17
-17 -5 -28 9 -8 11 -8 7 -1 -4 7 2 17 13 22 25 14 68 14 73 1 2 -6 8 -2 15 9
10 16 9 20 -8 24 -10 3 -19 1 -19 -4z"/>
<path d="M460 1069 c0 -5 5 -7 10 -4 6 3 10 8 10 11 0 2 -4 4 -10 4 -5 0 -10
-5 -10 -11z"/>
<path d="M504 1054 c-10 -14 -23 -23 -31 -20 -8 3 -11 1 -8 -4 11 -18 32 -11
50 16 14 22 19 24 33 12 15 -12 16 -11 3 5 -18 23 -28 22 -47 -9z"/>
<path d="M546 1023 c-6 -14 -5 -15 5 -6 7 7 10 15 7 18 -3 3 -9 -2 -12 -12z"/>
<path d="M2027 1013 c-4 -3 -7 -13 -7 -22 0 -11 3 -11 14 4 12 17 16 17 30 6
14 -12 16 -12 10 3 -6 16 -35 22 -47 9z"/>
<path d="M2116 998 c4 -17 2 -28 -5 -29 -6 -1 -15 -3 -21 -4 -5 -1 -21 -3 -35
-4 -14 0 -25 -4 -25 -9 0 -13 79 -1 91 14 9 11 9 20 1 37 -11 21 -11 20 -6 -5z"/>
<path d="M459 976 c9 -11 9 -15 -1 -19 -7 -3 12 -5 42 -5 42 1 46 2 17 5 -21
2 -41 11 -44 19 -3 8 -10 14 -15 14 -6 0 -6 -6 1 -14z"/>
<path d="M474 895 c-18 -14 -18 -14 4 -8 12 3 22 9 22 14 0 12 -3 11 -26 -6z"/>
<path d="M547 876 c6 -31 -33 -57 -40 -28 -4 16 -5 16 -6 0 -1 -21 -12 -23
-30 -5 -11 10 -13 9 -9 -3 6 -19 64 -25 84 -9 15 13 19 55 5 63 -4 3 -6 -5 -4
-18z"/>
<path d="M2026 841 c5 -5 20 -12 34 -15 l25 -7 -25 15 c-28 17 -50 21 -34 7z"/>
<path d="M2098 813 c24 -9 11 -21 -30 -28 -24 -4 -46 -9 -50 -11 -4 -3 12 -23
35 -45 l42 -40 -60 6 c-74 7 -46 -9 35 -20 l55 -7 -42 44 c-24 24 -43 46 -43
50 0 3 21 9 46 13 73 11 80 16 44 31 -18 8 -35 14 -39 13 -3 0 0 -3 7 -6z"/>
<path d="M534 761 c18 -7 17 -10 -12 -31 -18 -13 -32 -28 -32 -33 0 -4 20 6
45 24 46 33 46 49 0 48 -19 0 -20 -1 -1 -8z"/>
<path d="M541 664 c-18 -8 -31 -17 -28 -20 3 -3 25 3 49 14 49 23 31 28 -21 6z"/>
<path d="M1958 648 c-4 -8 3 -13 18 -13 13 0 23 5 21 10 -5 15 -34 18 -39 3z"/>
<path d="M580 612 c-45 -30 -47 -38 -20 -70 l19 -23 41 21 c23 12 40 24 37 26
-3 3 -19 -2 -37 -11 -37 -19 -60 -14 -60 13 0 12 12 24 30 32 17 7 33 17 36
21 9 15 -19 9 -46 -9z"/>
<path d="M1936 592 c-6 -11 80 -36 93 -27 6 3 11 11 11 17 0 7 -5 6 -15 -2
-11 -9 -21 -9 -46 4 -37 19 -36 18 -43 8z"/>
<path d="M1938 520 c18 -16 39 -30 45 -30 14 1 -53 59 -68 60 -5 0 5 -13 23
-30z"/>
<path d="M617 459 l-42 -41 44 36 c46 37 78 45 99 24 24 -24 13 -56 -30 -92
-24 -19 -39 -38 -35 -43 9 -8 97 79 97 95 0 5 -9 21 -21 36 -30 38 -62 34
-112 -15z"/>
<path d="M1860 485 c0 -8 64 -64 74 -65 5 0 -1 12 -15 26 -24 26 -59 49 -59
39z"/>
<path d="M1809 433 c-13 -17 -13 -17 5 -3 16 13 20 12 33 -5 15 -20 15 -20 11
0 -4 26 -31 30 -49 8z"/>
<path d="M1780 404 c0 -7 18 -23 58 -51 18 -12 25 -13 37 -3 8 7 15 17 15 23
0 6 -6 3 -13 -7 -13 -17 -16 -17 -49 13 -35 31 -48 37 -48 25z"/>
<path d="M1146 363 c-6 -14 -5 -15 5 -6 7 7 10 15 7 18 -3 3 -9 -2 -12 -12z"/>
<path d="M1410 371 c0 -6 4 -13 10 -16 6 -3 7 1 4 9 -7 18 -14 21 -14 7z"/>
<path d="M1050 366 c0 -2 8 -10 18 -17 15 -13 16 -12 3 4 -13 16 -21 21 -21
13z"/>
<path d="M1293 344 c0 -7 6 -10 14 -7 7 3 13 8 13 12 0 4 -6 8 -13 8 -8 0 -14
-6 -14 -13z"/>
<path d="M1085 331 c-3 -5 -2 -12 3 -15 5 -3 9 1 9 9 0 17 -3 19 -12 6z"/>
<path d="M1121 324 c0 -11 3 -14 6 -6 3 7 2 16 -1 19 -3 4 -6 -2 -5 -13z"/>
<path d="M1473 325 c0 -8 4 -12 9 -9 5 3 6 10 3 15 -9 13 -12 11 -12 -6z"/>
<path d="M1158 223 c-2 -5 -1 -30 3 -58 l6 -50 1 58 c2 52 -2 69 -10 50z"/>
<path d="M1201 212 c-6 -12 -6 -23 0 -33 9 -12 10 -12 6 1 -2 8 0 23 5 33 5 9
6 17 4 17 -3 0 -10 -8 -15 -18z"/>
<path d="M1238 219 c7 -10 10 -32 7 -55 -3 -27 -2 -34 5 -24 15 24 11 66 -7
81 -16 12 -17 12 -5 -2z"/>
<path d="M1290 201 c-14 -27 -13 -56 4 -70 12 -10 13 -6 6 22 -4 19 -3 42 2
51 5 9 7 16 4 16 -3 0 -10 -9 -16 -19z"/>
<path d="M1377 213 c-14 -13 -7 -71 11 -84 15 -13 16 -12 3 3 -8 10 -12 32 -9
53 4 38 4 38 -5 28z"/>
<path d="M1428 184 c3 -20 -2 -42 -9 -52 -13 -15 -12 -16 4 -3 17 14 24 75 9
85 -4 2 -6 -11 -4 -30z"/>
<path d="M1336 165 c4 -8 0 -23 -7 -33 -13 -15 -12 -16 4 -3 19 15 22 36 7 46
-6 3 -7 -1 -4 -10z"/>
</g>
</svg>
